<svg xmlns="http://www.w3.org/2000/svg" style="margin: auto, background: #012c32"
  preserveAspectRatio="xMidYMid" viewBox="0 0 1920 919">
  <g transform="translate(960,459.5) scale(1,1) translate(-960,-459.5)">
    <path
      d="M-100 540.49C-64.24 553.72 -65.43 552.92 -31.61 552.92S3.3 553.91 36.77 553.91S72.58 555.76 105.16 555.76S140.34 542.69 173.55 542.69S209.66 546.74 241.94 546.74S277.27 553.73 310.32 553.73S345.08 537.03 378.71 537.03S413.97 552.62 447.1 552.62S483.18 541.01 515.48 541.01S549.71 543.65 583.87 543.65S618.35 554.63 652.26 554.63S687.2 551.08 720.65 551.08S756.17 535.36 789.03 535.36S825.08 542.16 857.42 542.16S892.4 548.6 925.81 548.6S960.09 534.16 994.19 534.16S1030.23 536.69 1062.58 536.69S1096.81 533.25 1130.97 533.25S1165.43 535.18 1199.35 535.18S1235.22 533.7 1267.74 533.7S1304.15 537.28 1336.13 537.28S1371.49 543.02 1404.52 543.02S1440.67 539.69 1472.9 539.69S1508.16 538.67 1541.29 538.67S1576.21 537.66 1609.68 537.66S1644.33 536.66 1678.06 536.66S1713.71 537.18 1746.45 537.18S1781.21 542.35 1814.84 542.35S1850.19 552.67 1883.23 552.67S1917.52 536.95 1951.61 536.95S1986.05 555.06 2020 555.06S2055.73 555.93 2088.39 555.93L2020 919 L-100 919 Z"
      fill="#0f3135" stroke-width="0">
      <animate attributeName="d" dur="5s" repeatCount="indefinite"
        values="M-100 540.49C-64.24 553.72 -65.43 552.92 -31.61 552.92S3.3 553.91 36.77 553.91S72.58 555.76 105.16 555.76S140.34 542.69 173.55 542.69S209.66 546.74 241.94 546.74S277.27 553.73 310.32 553.73S345.08 537.03 378.71 537.03S413.97 552.62 447.1 552.62S483.18 541.01 515.48 541.01S549.71 543.65 583.87 543.65S618.35 554.63 652.26 554.63S687.2 551.08 720.65 551.08S756.17 535.36 789.03 535.36S825.08 542.16 857.42 542.16S892.4 548.6 925.81 548.6S960.09 534.16 994.19 534.16S1030.23 536.69 1062.58 536.69S1096.81 533.25 1130.97 533.25S1165.43 535.18 1199.35 535.18S1235.22 533.7 1267.74 533.7S1304.15 537.28 1336.13 537.28S1371.49 543.02 1404.52 543.02S1440.67 539.69 1472.9 539.69S1508.16 538.67 1541.29 538.67S1576.21 537.66 1609.68 537.66S1644.33 536.66 1678.06 536.66S1713.71 537.18 1746.45 537.18S1781.21 542.35 1814.84 542.35S1850.19 552.67 1883.23 552.67S1917.52 536.95 1951.61 536.95S1986.05 555.06 2020 555.06S2055.73 555.93 2088.39 555.93L2020 919 L-100 919 Z;M-100 534.18C-64.11 534.63 -63.57 553.49 -31.61 553.49S4.63 543.75 36.77 543.75S70.98 547.22 105.16 547.22S139.73 536.83 173.55 536.83S209.29 540.9 241.94 540.9S277.58 550.17 310.32 550.17S345.04 551.34 378.71 551.34S414.73 538.97 447.1 538.97S482.76 537.08 515.48 537.08S551.92 550.56 583.87 550.56S619.15 535.46 652.26 535.46S687.15 554.53 720.65 554.53S756.87 547.45 789.03 547.45S825.18 539.94 857.42 539.94S892.75 554.96 925.81 554.96S961.52 533.3 994.19 533.3S1029.81 553.08 1062.58 553.08S1098.14 552.45 1130.97 552.45S1166.92 550.33 1199.35 550.33S1234.33 549.21 1267.74 549.21S1303.7 545.19 1336.13 545.19S1370.67 534.25 1404.52 534.25S1438.9 553.9 1472.9 553.9S1507.58 540.1 1541.29 540.1S1575.75 551.26 1609.68 551.26S1645.17 541.73 1678.06 541.73S1714.4 546.5 1746.45 546.5S1782.88 545.22 1814.84 545.22S1850.15 542.34 1883.23 542.34S1917.68 550.85 1951.61 550.85S1986.21 555.87 2020 555.87S2056.31 545.8 2088.39 545.8L2020 919 L-100 919 Z;M-100 540.49C-64.24 553.72 -65.43 552.92 -31.61 552.92S3.3 553.91 36.77 553.91S72.58 555.76 105.16 555.76S140.34 542.69 173.55 542.69S209.66 546.74 241.94 546.74S277.27 553.73 310.32 553.73S345.08 537.03 378.71 537.03S413.97 552.62 447.1 552.62S483.18 541.01 515.48 541.01S549.71 543.65 583.87 543.65S618.35 554.63 652.26 554.63S687.2 551.08 720.65 551.08S756.17 535.36 789.03 535.36S825.08 542.16 857.42 542.16S892.4 548.6 925.81 548.6S960.09 534.16 994.19 534.16S1030.23 536.69 1062.58 536.69S1096.81 533.25 1130.97 533.25S1165.43 535.18 1199.35 535.18S1235.22 533.7 1267.74 533.7S1304.15 537.28 1336.13 537.28S1371.49 543.02 1404.52 543.02S1440.67 539.69 1472.9 539.69S1508.16 538.67 1541.29 538.67S1576.21 537.66 1609.68 537.66S1644.33 536.66 1678.06 536.66S1713.71 537.18 1746.45 537.18S1781.21 542.35 1814.84 542.35S1850.19 552.67 1883.23 552.67S1917.52 536.95 1951.61 536.95S1986.05 555.06 2020 555.06S2055.73 555.93 2088.39 555.93L2020 919 L-100 919 Z">
      </animate>
      <animateTransform attributeName="transform" type="translate" dur="25s" begin="0s" repeatCount="indefinite"
        values="0;10;0" calcMode="spline" keySplines="0.3 0 0.7 1;0.3 0 0.7 1"></animateTransform>
    </path>
    <path
      d="M-100 561.23C-64.61 562.99 -62.94 578.89 -29.8 578.89S7.32 575.04 40.4 575.04S77.14 573.39 110.6 573.39S147.52 564.91 180.79 564.91S217.44 576.6 250.99 576.6S288.08 576.71 321.19 576.71S357.2 566.8 391.39 566.8S426.94 571.98 461.59 571.98S497.87 563.12 531.79 563.12S567.37 556.94 601.99 556.94S637.54 574.87 672.19 574.87S709.12 557.26 742.38 557.26S778.35 565.68 812.58 565.68S847.71 572.29 882.78 572.29S918.54 578.08 952.98 578.08S988.63 576.3 1023.18 576.3S1060.19 561.58 1093.38 561.58S1129.03 567.48 1163.58 567.48S1200.28 560.22 1233.77 560.22S1269.51 573.21 1303.97 573.21S1340.14 576.14 1374.17 576.14S1410.55 566.91 1444.37 566.91S1479.87 578.78 1514.57 578.78S1549.68 568.59 1584.77 568.59S1620.23 582.18 1654.97 582.18S1691.77 567.73 1725.17 567.73S1761.42 568.23 1795.36 568.23S1832.2 565.82 1865.56 565.82S1902.42 566.24 1935.76 566.24S1971.83 568.47 2005.96 568.47S2042.51 565.7 2076.16 565.7L2020 919 L-100 919 Z"
      fill="#254346" stroke-width="0">
      <animate attributeName="d" dur="22.5s" repeatCount="indefinite"
        values="M-100 561.23C-64.61 562.99 -62.94 578.89 -29.8 578.89S7.32 575.04 40.4 575.04S77.14 573.39 110.6 573.39S147.52 564.91 180.79 564.91S217.44 576.6 250.99 576.6S288.08 576.71 321.19 576.71S357.2 566.8 391.39 566.8S426.94 571.98 461.59 571.98S497.87 563.12 531.79 563.12S567.37 556.94 601.99 556.94S637.54 574.87 672.19 574.87S709.12 557.26 742.38 557.26S778.35 565.68 812.58 565.68S847.71 572.29 882.78 572.29S918.54 578.08 952.98 578.08S988.63 576.3 1023.18 576.3S1060.19 561.58 1093.38 561.58S1129.03 567.48 1163.58 567.48S1200.28 560.22 1233.77 560.22S1269.51 573.21 1303.97 573.21S1340.14 576.14 1374.17 576.14S1410.55 566.91 1444.37 566.91S1479.87 578.78 1514.57 578.78S1549.68 568.59 1584.77 568.59S1620.23 582.18 1654.97 582.18S1691.77 567.73 1725.17 567.73S1761.42 568.23 1795.36 568.23S1832.2 565.82 1865.56 565.82S1902.42 566.24 1935.76 566.24S1971.83 568.47 2005.96 568.47S2042.51 565.7 2076.16 565.7L2020 919 L-100 919 Z;M-100 559.39C-63.34 560.96 -64.75 562.94 -29.8 562.94S7.22 564.29 40.4 564.29S77.57 569.33 110.6 569.33S147.41 560.87 180.79 560.87S217.78 579.67 250.99 579.67S287.29 568.66 321.19 568.66S357.87 581.22 391.39 581.22S427.12 570.73 461.59 570.73S497.25 581.13 531.79 581.13S568.53 570.73 601.99 570.73S639.35 578.95 672.19 578.95S708.06 571.94 742.38 571.94S778.53 579.49 812.58 579.49S848.05 559.51 882.78 559.51S920.01 581.4 952.98 581.4S989.43 570.7 1023.18 570.7S1058.7 577.74 1093.38 577.74S1130.39 575.55 1163.58 575.55S1199.68 563.35 1233.77 563.35S1270.59 557.8 1303.97 557.8S1340.49 582.15 1374.17 582.15S1409.71 560.31 1444.37 560.31S1481.43 578.08 1514.57 578.08S1550.98 556.73 1584.77 556.73S1619.99 578.27 1654.97 578.27S1691.04 571.04 1725.17 571.04S1762.52 575.63 1795.36 575.63S1831.39 570.02 1865.56 570.02S1902.68 563 1935.76 563S1971.39 566.95 2005.96 566.95S2042.35 570.94 2076.16 570.94L2020 919 L-100 919 Z;M-100 561.23C-64.61 562.99 -62.94 578.89 -29.8 578.89S7.32 575.04 40.4 575.04S77.14 573.39 110.6 573.39S147.52 564.91 180.79 564.91S217.44 576.6 250.99 576.6S288.08 576.71 321.19 576.71S357.2 566.8 391.39 566.8S426.94 571.98 461.59 571.98S497.87 563.12 531.79 563.12S567.37 556.94 601.99 556.94S637.54 574.87 672.19 574.87S709.12 557.26 742.38 557.26S778.35 565.68 812.58 565.68S847.71 572.29 882.78 572.29S918.54 578.08 952.98 578.08S988.63 576.3 1023.18 576.3S1060.19 561.58 1093.38 561.58S1129.03 567.48 1163.58 567.48S1200.28 560.22 1233.77 560.22S1269.51 573.21 1303.97 573.21S1340.14 576.14 1374.17 576.14S1410.55 566.91 1444.37 566.91S1479.87 578.78 1514.57 578.78S1549.68 568.59 1584.77 568.59S1620.23 582.18 1654.97 582.18S1691.77 567.73 1725.17 567.73S1761.42 568.23 1795.36 568.23S1832.2 565.82 1865.56 565.82S1902.42 566.24 1935.76 566.24S1971.83 568.47 2005.96 568.47S2042.51 565.7 2076.16 565.7L2020 919 L-100 919 Z">
      </animate>
      <animateTransform attributeName="transform" type="translate" dur="22.5s" begin="-2.25s" repeatCount="indefinite"
        values="0;10;0" calcMode="spline" keySplines="0.3 0 0.7 1;0.3 0 0.7 1"></animateTransform>
    </path>
    <path
      d="M-100 584.89C-63.28 590.11 -62.45 593.86 -27.89 593.86S10.25 596.59 44.22 596.59S80.33 604.7 116.33 604.7S152.76 587.43 188.44 587.43S226.7 592.41 260.54 592.41S297.88 584.23 332.65 584.23S369.82 591.25 404.76 591.25S441.34 597.43 476.87 597.43S513.6 607.3 548.98 607.3S586.61 595.84 621.09 595.84S657.7 599.92 693.2 599.92S731.18 600.79 765.31 600.79S801.63 597.27 837.41 597.27S873.87 588.8 909.52 588.8S945.61 602.28 981.63 602.28S1019.05 597.3 1053.74 597.3S1090.03 582.71 1125.85 582.71S1161.92 602.73 1197.96 602.73S1234.61 590.11 1270.07 590.11S1306.21 604.94 1342.18 604.94S1379.21 592.96 1414.29 592.96S1452.4 581.7 1486.39 581.7S1522.91 599.21 1558.5 599.21S1595.69 599.37 1630.61 599.37S1668.43 607.15 1702.72 607.15S1740.14 589.21 1774.83 589.21S1812.77 588.8 1846.94 588.8S1884.96 579.1 1919.05 579.1S1956.46 591.98 1991.16 591.98S2029.13 603.09 2063.27 603.09L2020 919 L-100 919 Z"
      fill="#3b5658" stroke-width="0">
      <animate attributeName="d" dur="5s" repeatCount="indefinite"
        values="M-100 584.89C-63.28 590.11 -62.45 593.86 -27.89 593.86S10.25 596.59 44.22 596.59S80.33 604.7 116.33 604.7S152.76 587.43 188.44 587.43S226.7 592.41 260.54 592.41S297.88 584.23 332.65 584.23S369.82 591.25 404.76 591.25S441.34 597.43 476.87 597.43S513.6 607.3 548.98 607.3S586.61 595.84 621.09 595.84S657.7 599.92 693.2 599.92S731.18 600.79 765.31 600.79S801.63 597.27 837.41 597.27S873.87 588.8 909.52 588.8S945.61 602.28 981.63 602.28S1019.05 597.3 1053.74 597.3S1090.03 582.71 1125.85 582.71S1161.92 602.73 1197.96 602.73S1234.61 590.11 1270.07 590.11S1306.21 604.94 1342.18 604.94S1379.21 592.96 1414.29 592.96S1452.4 581.7 1486.39 581.7S1522.91 599.21 1558.5 599.21S1595.69 599.37 1630.61 599.37S1668.43 607.15 1702.72 607.15S1740.14 589.21 1774.83 589.21S1812.77 588.8 1846.94 588.8S1884.96 579.1 1919.05 579.1S1956.46 591.98 1991.16 591.98S2029.13 603.09 2063.27 603.09L2020 919 L-100 919 Z;M-100 599.3C-61.85 581.29 -62.83 603.92 -27.89 603.92S9.02 587.81 44.22 587.81S81.43 598.41 116.33 598.41S152.7 591.9 188.44 591.9S225.43 595.85 260.54 595.85S298.06 600.94 332.65 600.94S370.92 594.46 404.76 594.46S442.86 600.28 476.87 600.28S513.23 588.62 548.98 588.62S585.54 583.88 621.09 583.88S657.53 603.67 693.2 603.67S729.44 601.62 765.31 601.62S803.27 607.05 837.41 607.05S874.89 593.81 909.52 593.81S947.73 597.69 981.63 597.69S1019.11 590.84 1053.74 590.84S1089.86 588.55 1125.85 588.55S1162.1 580.42 1197.96 580.42S1235.49 589.82 1270.07 589.82S1306.94 587.6 1342.18 587.6S1378.52 588.82 1414.29 588.82S1451.74 591.74 1486.39 591.74S1524.1 596.67 1558.5 596.67S1596.02 579.37 1630.61 579.37S1667.74 609.27 1702.72 609.27S1740.18 584.91 1774.83 584.91S1811.36 594.35 1846.94 594.35S1883.13 584.82 1919.05 584.82S1956.26 609.4 1991.16 609.4S2029.14 581.32 2063.27 581.32L2020 919 L-100 919 Z;M-100 584.89C-63.28 590.11 -62.45 593.86 -27.89 593.86S10.25 596.59 44.22 596.59S80.33 604.7 116.33 604.7S152.76 587.43 188.44 587.43S226.7 592.41 260.54 592.41S297.88 584.23 332.65 584.23S369.82 591.25 404.76 591.25S441.34 597.43 476.87 597.43S513.6 607.3 548.98 607.3S586.61 595.84 621.09 595.84S657.7 599.92 693.2 599.92S731.18 600.79 765.31 600.79S801.63 597.27 837.41 597.27S873.87 588.8 909.52 588.8S945.61 602.28 981.63 602.28S1019.05 597.3 1053.74 597.3S1090.03 582.71 1125.85 582.71S1161.92 602.73 1197.96 602.73S1234.61 590.11 1270.07 590.11S1306.21 604.94 1342.18 604.94S1379.21 592.96 1414.29 592.96S1452.4 581.7 1486.39 581.7S1522.91 599.21 1558.5 599.21S1595.69 599.37 1630.61 599.37S1668.43 607.15 1702.72 607.15S1740.14 589.21 1774.83 589.21S1812.77 588.8 1846.94 588.8S1884.96 579.1 1919.05 579.1S1956.46 591.98 1991.16 591.98S2029.13 603.09 2063.27 603.09L2020 919 L-100 919 Z">
      </animate>
      <animateTransform attributeName="transform" type="translate" dur="20s" begin="-4s" repeatCount="indefinite"
        values="0;10;0" calcMode="spline" keySplines="0.3 0 0.7 1;0.3 0 0.7 1"></animateTransform>
    </path>
    <path
      d="M-100 623.63C-62.57 617.45 -62.92 632.02 -25.87 632.02S11.36 617.5 48.25 617.5S85.85 627.95 122.38 627.95S160.01 619.29 196.5 619.29S235.2 604.29 270.63 604.29S307.8 605.24 344.76 605.24S382.43 623.88 418.88 623.88S457.53 623.47 493.01 623.47S532.2 634.65 567.13 634.65S605.1 605.42 641.26 605.42S679.96 631.43 715.38 631.43S754.59 604.22 789.51 604.22S828.42 637.14 863.64 637.14S900.72 620.86 937.76 620.86S976.96 624.31 1011.89 624.31S1049.79 603.62 1086.01 603.62S1124.43 628.83 1160.14 628.83S1197.87 611.91 1234.27 611.91S1271.68 623.36 1308.39 623.36S1346.15 614.96 1382.52 614.96S1420.84 609.59 1456.64 609.59S1495.81 619.07 1530.77 619.07S1568.31 616.05 1604.9 616.05S1644.04 617.33 1679.02 617.33S1717.63 630.69 1753.15 630.69S1792.32 615.31 1827.27 615.31S1865.37 619.35 1901.4 619.35S1940.63 606.31 1975.52 606.31S2014.47 617.72 2049.65 617.72L2020 919 L-100 919 Z"
      fill="#51696b" stroke-width="0">
      <animate attributeName="d" dur="17.5s" repeatCount="indefinite"
        values="M-100 623.63C-62.57 617.45 -62.92 632.02 -25.87 632.02S11.36 617.5 48.25 617.5S85.85 627.95 122.38 627.95S160.01 619.29 196.5 619.29S235.2 604.29 270.63 604.29S307.8 605.24 344.76 605.24S382.43 623.88 418.88 623.88S457.53 623.47 493.01 623.47S532.2 634.65 567.13 634.65S605.1 605.42 641.26 605.42S679.96 631.43 715.38 631.43S754.59 604.22 789.51 604.22S828.42 637.14 863.64 637.14S900.72 620.86 937.76 620.86S976.96 624.31 1011.89 624.31S1049.79 603.62 1086.01 603.62S1124.43 628.83 1160.14 628.83S1197.87 611.91 1234.27 611.91S1271.68 623.36 1308.39 623.36S1346.15 614.96 1382.52 614.96S1420.84 609.59 1456.64 609.59S1495.81 619.07 1530.77 619.07S1568.31 616.05 1604.9 616.05S1644.04 617.33 1679.02 617.33S1717.63 630.69 1753.15 630.69S1792.32 615.31 1827.27 615.31S1865.37 619.35 1901.4 619.35S1940.63 606.31 1975.52 606.31S2014.47 617.72 2049.65 617.72L2020 919 L-100 919 Z;M-100 615.31C-61.28 605.34 -62.48 625.18 -25.87 625.18S12.56 613.13 48.25 613.13S86.85 629.84 122.38 629.84S159.87 603.6 196.5 603.6S234.28 617.2 270.63 617.2S308.96 617.24 344.76 617.24S382.68 621.64 418.88 621.64S455.98 605.6 493.01 605.6S532.27 620.7 567.13 620.7S605.42 615.11 641.26 615.11S680.36 635.74 715.38 635.74S754.65 619.65 789.51 619.65S826.6 631.06 863.64 631.06S901.72 628.92 937.76 628.92S975.85 616.02 1011.89 616.02S1050.14 619.5 1086.01 619.5S1124.01 630.64 1160.14 630.64S1198.77 618.99 1234.27 618.99S1271.44 633.21 1308.39 633.21S1346.75 609.19 1382.52 609.19S1419.66 630.18 1456.64 630.18S1495.49 616.06 1530.77 616.06S1569.51 638.38 1604.9 638.38S1644.1 606.57 1679.02 606.57S1717.22 622.87 1753.15 622.87S1791.46 605.8 1827.27 605.8S1865.66 628.45 1901.4 628.45S1938.54 603.11 1975.52 603.11S2014.29 619.08 2049.65 619.08L2020 919 L-100 919 Z;M-100 623.63C-62.57 617.45 -62.92 632.02 -25.87 632.02S11.36 617.5 48.25 617.5S85.85 627.95 122.38 627.95S160.01 619.29 196.5 619.29S235.2 604.29 270.63 604.29S307.8 605.24 344.76 605.24S382.43 623.88 418.88 623.88S457.53 623.47 493.01 623.47S532.2 634.65 567.13 634.65S605.1 605.42 641.26 605.42S679.96 631.43 715.38 631.43S754.59 604.22 789.51 604.22S828.42 637.14 863.64 637.14S900.72 620.86 937.76 620.86S976.96 624.31 1011.89 624.31S1049.79 603.62 1086.01 603.62S1124.43 628.83 1160.14 628.83S1197.87 611.91 1234.27 611.91S1271.68 623.36 1308.39 623.36S1346.15 614.96 1382.52 614.96S1420.84 609.59 1456.64 609.59S1495.81 619.07 1530.77 619.07S1568.31 616.05 1604.9 616.05S1644.04 617.33 1679.02 617.33S1717.63 630.69 1753.15 630.69S1792.32 615.31 1827.27 615.31S1865.37 619.35 1901.4 619.35S1940.63 606.31 1975.52 606.31S2014.47 617.72 2049.65 617.72L2020 919 L-100 919 Z">
      </animate>
      <animateTransform attributeName="transform" type="translate" dur="17.5s" begin="-5.25s" repeatCount="indefinite"
        values="0;10;0" calcMode="spline" keySplines="0.3 0 0.7 1;0.3 0 0.7 1"></animateTransform>
    </path>
    <path
      d="M-100 656.51C-60.45 647.55 -60.75 666.15 -23.74 666.15S15.76 633.61 52.52 633.61S90.97 658.53 128.78 658.53S168.25 638.04 205.04 638.04S245.37 656.63 281.29 656.63S319.55 634.82 357.55 634.82S395.94 644.82 433.81 644.82S473.09 625.59 510.07 625.59S548.88 666.08 586.33 666.08S625.93 626.93 662.59 626.93S702.26 644.43 738.85 644.43S778.2 632.15 815.11 632.15S854.95 653.64 891.37 653.64S930.37 632.3 967.63 632.3S1006.15 657.02 1043.88 657.02S1082.05 644.94 1120.14 644.94S1160.55 649.45 1196.4 649.45S1234.84 642.89 1272.66 642.89S1312.57 651.92 1348.92 651.92S1388.16 644.62 1425.18 644.62S1464.85 664.78 1501.44 664.78S1541.75 640.48 1577.7 640.48S1616.87 664.05 1653.96 664.05S1693.71 631.17 1730.22 631.17S1768.5 660.45 1806.47 660.45S1845.58 631.86 1882.73 631.86S1921.7 657.64 1958.99 657.64S1998.33 632.34 2035.25 632.34L2020 919 L-100 919 Z"
      fill="#677d7f" stroke-width="0">
      <animate attributeName="d" dur="15s" repeatCount="indefinite"
        values="M-100 656.51C-60.45 647.55 -60.75 666.15 -23.74 666.15S15.76 633.61 52.52 633.61S90.97 658.53 128.78 658.53S168.25 638.04 205.04 638.04S245.37 656.63 281.29 656.63S319.55 634.82 357.55 634.82S395.94 644.82 433.81 644.82S473.09 625.59 510.07 625.59S548.88 666.08 586.33 666.08S625.93 626.93 662.59 626.93S702.26 644.43 738.85 644.43S778.2 632.15 815.11 632.15S854.95 653.64 891.37 653.64S930.37 632.3 967.63 632.3S1006.15 657.02 1043.88 657.02S1082.05 644.94 1120.14 644.94S1160.55 649.45 1196.4 649.45S1234.84 642.89 1272.66 642.89S1312.57 651.92 1348.92 651.92S1388.16 644.62 1425.18 644.62S1464.85 664.78 1501.44 664.78S1541.75 640.48 1577.7 640.48S1616.87 664.05 1653.96 664.05S1693.71 631.17 1730.22 631.17S1768.5 660.45 1806.47 660.45S1845.58 631.86 1882.73 631.86S1921.7 657.64 1958.99 657.64S1998.33 632.34 2035.25 632.34L2020 919 L-100 919 Z;M-100 653.28C-60.64 663.83 -60.98 646.92 -23.74 646.92S16.27 643.47 52.52 643.47S92.86 660.04 128.78 660.04S168.36 640.32 205.04 640.32S244.24 661.45 281.29 661.45S320.44 625.06 357.55 625.06S396.72 651.99 433.81 651.99S472.96 646.43 510.07 646.43S548.7 644.37 586.33 644.37S625.16 649.48 662.59 649.48S702.3 655.46 738.85 655.46S778.85 646.74 815.11 646.74S855.08 641.62 891.37 641.62S929.57 638.53 967.63 638.53S1007.53 647.03 1043.88 647.03S1082.52 634.22 1120.14 634.22S1160.47 644.02 1196.4 644.02S1235.42 652.92 1272.66 652.92S1312.13 653.07 1348.92 653.07S1387.82 625.99 1425.18 625.99S1463.53 660.64 1501.44 660.64S1540.21 630.34 1577.7 630.34S1616.99 653.21 1653.96 653.21S1693.89 662.09 1730.22 662.09S1768.47 656.79 1806.47 656.79S1844.71 643.9 1882.73 643.9S1922.81 634.44 1958.99 634.44S1997.69 661.53 2035.25 661.53L2020 919 L-100 919 Z;M-100 656.51C-60.45 647.55 -60.75 666.15 -23.74 666.15S15.76 633.61 52.52 633.61S90.97 658.53 128.78 658.53S168.25 638.04 205.04 638.04S245.37 656.63 281.29 656.63S319.55 634.82 357.55 634.82S395.94 644.82 433.81 644.82S473.09 625.59 510.07 625.59S548.88 666.08 586.33 666.08S625.93 626.93 662.59 626.93S702.26 644.43 738.85 644.43S778.2 632.15 815.11 632.15S854.95 653.64 891.37 653.64S930.37 632.3 967.63 632.3S1006.15 657.02 1043.88 657.02S1082.05 644.94 1120.14 644.94S1160.55 649.45 1196.4 649.45S1234.84 642.89 1272.66 642.89S1312.57 651.92 1348.92 651.92S1388.16 644.62 1425.18 644.62S1464.85 664.78 1501.44 664.78S1541.75 640.48 1577.7 640.48S1616.87 664.05 1653.96 664.05S1693.71 631.17 1730.22 631.17S1768.5 660.45 1806.47 660.45S1845.58 631.86 1882.73 631.86S1921.7 657.64 1958.99 657.64S1998.33 632.34 2035.25 632.34L2020 919 L-100 919 Z">
      </animate>
      <animateTransform attributeName="transform" type="translate" dur="15s" begin="-6s" repeatCount="indefinite"
        values="0;10;0" calcMode="spline" keySplines="0.3 0 0.7 1;0.3 0 0.7 1"></animateTransform>
    </path>
    <path
      d="M-100 656.29C-59.09 666.12 -59.15 693.25 -21.48 693.25S18.86 665.52 57.04 665.52S97.49 687.21 135.56 687.21S175.04 668.44 214.07 668.44S255.14 673.54 292.59 673.54S334.06 685.95 371.11 685.95S410.77 672.49 449.63 672.49S490.14 666.74 528.15 666.74S569.12 688.72 606.67 688.72S646.95 659.55 685.19 659.55S726.26 676.42 763.7 676.42S804.98 658.44 842.22 658.44S882.72 671.32 920.74 671.32S962.08 675.1 999.26 675.1S1039.78 682.24 1077.78 682.24S1118.06 663.07 1156.3 663.07S1197.32 674.57 1234.81 674.57S1274.33 666.21 1313.33 666.21S1353.85 677.48 1391.85 677.48S1431.51 667.21 1470.37 667.21S1511.54 686.78 1548.89 686.78S1589.26 648.39 1627.41 648.39S1667.21 685.38 1705.93 685.38S1746.03 669.14 1784.44 669.14S1824.03 689.6 1862.96 689.6S1904.21 660.94 1941.48 660.94S1980.89 690.45 2020 690.45S2060.2 655.77 2098.52 655.77L2020 919 L-100 919 Z"
      fill="#7e9193" stroke-width="0">
      <animate attributeName="d" dur="12.5s" repeatCount="indefinite"
        values="M-100 656.29C-59.09 666.12 -59.15 693.25 -21.48 693.25S18.86 665.52 57.04 665.52S97.49 687.21 135.56 687.21S175.04 668.44 214.07 668.44S255.14 673.54 292.59 673.54S334.06 685.95 371.11 685.95S410.77 672.49 449.63 672.49S490.14 666.74 528.15 666.74S569.12 688.72 606.67 688.72S646.95 659.55 685.19 659.55S726.26 676.42 763.7 676.42S804.98 658.44 842.22 658.44S882.72 671.32 920.74 671.32S962.08 675.1 999.26 675.1S1039.78 682.24 1077.78 682.24S1118.06 663.07 1156.3 663.07S1197.32 674.57 1234.81 674.57S1274.33 666.21 1313.33 666.21S1353.85 677.48 1391.85 677.48S1431.51 667.21 1470.37 667.21S1511.54 686.78 1548.89 686.78S1589.26 648.39 1627.41 648.39S1667.21 685.38 1705.93 685.38S1746.03 669.14 1784.44 669.14S1824.03 689.6 1862.96 689.6S1904.21 660.94 1941.48 660.94S1980.89 690.45 2020 690.45S2060.2 655.77 2098.52 655.77L2020 919 L-100 919 Z;M-100 652.75C-59.59 669.93 -59.15 691.45 -21.48 691.45S19.53 648.23 57.04 648.23S97.97 676.71 135.56 676.71S175.16 650.3 214.07 650.3S253.47 681.77 292.59 681.77S333.16 655.71 371.11 655.71S410.64 692.03 449.63 692.03S489.03 658.36 528.15 658.36S569.47 674.81 606.67 674.81S648.19 659.5 685.19 659.5S726.63 671.87 763.7 671.87S803.67 665.78 842.22 665.78S882.63 692.93 920.74 692.93S960.9 648.19 999.26 648.19S1040.42 691.06 1077.78 691.06S1119.05 650.98 1156.3 650.98S1196.72 677.36 1234.81 677.36S1274.13 688.66 1313.33 688.66S1354.14 681.57 1391.85 681.57S1431.89 673.13 1470.37 673.13S1510.7 686.37 1548.89 686.37S1588.26 648.39 1627.41 648.39S1668.82 685.71 1705.93 685.71S1746.54 651.72 1784.44 651.72S1825.97 686.03 1862.96 686.03S1904.15 650 1941.48 650S1981.57 678.22 2020 678.22S2061.01 651.89 2098.52 651.89L2020 919 L-100 919 Z;M-100 656.29C-59.09 666.12 -59.15 693.25 -21.48 693.25S18.86 665.52 57.04 665.52S97.49 687.21 135.56 687.21S175.04 668.44 214.07 668.44S255.14 673.54 292.59 673.54S334.06 685.95 371.11 685.95S410.77 672.49 449.63 672.49S490.14 666.74 528.15 666.74S569.12 688.72 606.67 688.72S646.95 659.55 685.19 659.55S726.26 676.42 763.7 676.42S804.98 658.44 842.22 658.44S882.72 671.32 920.74 671.32S962.08 675.1 999.26 675.1S1039.78 682.24 1077.78 682.24S1118.06 663.07 1156.3 663.07S1197.32 674.57 1234.81 674.57S1274.33 666.21 1313.33 666.21S1353.85 677.48 1391.85 677.48S1431.51 667.21 1470.37 667.21S1511.54 686.78 1548.89 686.78S1589.26 648.39 1627.41 648.39S1667.21 685.38 1705.93 685.38S1746.03 669.14 1784.44 669.14S1824.03 689.6 1862.96 689.6S1904.21 660.94 1941.48 660.94S1980.89 690.45 2020 690.45S2060.2 655.77 2098.52 655.77L2020 919 L-100 919 Z">
      </animate>
      <animateTransform attributeName="transform" type="translate" dur="12.5s" begin="-6.25s" repeatCount="indefinite"
        values="0;10;0" calcMode="spline" keySplines="0.3 0 0.7 1;0.3 0 0.7 1"></animateTransform>
    </path>
    <path
      d="M-100 687.32C-58.95 675.39 -59.42 706.14 -19.08 706.14S21.88 681.04 61.83 681.04S102.97 720.39 142.75 720.39S183.66 680.12 223.66 680.12S264.34 699.43 304.58 699.43S346.4 676.89 385.5 676.89S427.93 700.16 466.41 700.16S508.01 693.31 547.33 693.31S589.6 708.29 628.24 708.29S669.91 680.04 709.16 680.04S750.72 711.51 790.08 711.51S831.8 687.37 870.99 687.37S912.85 708.32 951.91 708.32S992.38 714.26 1032.82 714.26S1074.08 692.88 1113.74 692.88S1155.38 676.46 1194.66 676.46S1235.35 699.72 1275.57 699.72S1316.09 718.37 1356.49 718.37S1399.12 717.83 1437.4 717.83S1479.66 689.45 1518.32 689.45S1559.08 712.11 1599.24 712.11S1641.41 678.81 1680.15 678.81S1722.35 718.87 1761.07 718.87S1802.65 684.64 1841.98 684.64S1884.6 716.23 1922.9 716.23S1965.21 690.55 2003.82 690.55S2046.4 708.62 2084.73 708.62L2020 919 L-100 919 Z"
      fill="#95a6a7" stroke-width="0">
      <animate attributeName="d" dur="10s" repeatCount="indefinite"
        values="M-100 687.32C-58.95 675.39 -59.42 706.14 -19.08 706.14S21.88 681.04 61.83 681.04S102.97 720.39 142.75 720.39S183.66 680.12 223.66 680.12S264.34 699.43 304.58 699.43S346.4 676.89 385.5 676.89S427.93 700.16 466.41 700.16S508.01 693.31 547.33 693.31S589.6 708.29 628.24 708.29S669.91 680.04 709.16 680.04S750.72 711.51 790.08 711.51S831.8 687.37 870.99 687.37S912.85 708.32 951.91 708.32S992.38 714.26 1032.82 714.26S1074.08 692.88 1113.74 692.88S1155.38 676.46 1194.66 676.46S1235.35 699.72 1275.57 699.72S1316.09 718.37 1356.49 718.37S1399.12 717.83 1437.4 717.83S1479.66 689.45 1518.32 689.45S1559.08 712.11 1599.24 712.11S1641.41 678.81 1680.15 678.81S1722.35 718.87 1761.07 718.87S1802.65 684.64 1841.98 684.64S1884.6 716.23 1922.9 716.23S1965.21 690.55 2003.82 690.55S2046.4 708.62 2084.73 708.62L2020 919 L-100 919 Z;M-100 686.22C-58.72 678.47 -59.07 704.11 -19.08 704.11S21.75 688.06 61.83 688.06S103.96 712.07 142.75 712.07S184.58 689.1 223.66 689.1S264.56 714.24 304.58 714.24S346.7 679.15 385.5 679.15S426.4 713.58 466.41 713.58S508.6 676.77 547.33 676.77S589.91 713.07 628.24 713.07S669.95 685.28 709.16 685.28S751.48 718.37 790.08 718.37S832.42 676.01 870.99 676.01S912.32 712.56 951.91 712.56S993.96 704 1032.82 704S1073.44 686.95 1113.74 686.95S1155.72 678.8 1194.66 678.8S1236.49 712.45 1275.57 712.45S1317.34 676.38 1356.49 676.38S1398 706.99 1437.4 706.99S1478.97 714.77 1518.32 714.77S1559.17 689.03 1599.24 689.03S1640.19 688.11 1680.15 688.11S1720.69 711.64 1761.07 711.64S1801.92 686.25 1841.98 686.25S1884.29 719.73 1922.9 719.73S1963.7 706.32 2003.82 706.32S2046.38 718.54 2084.73 718.54L2020 919 L-100 919 Z;M-100 687.32C-58.95 675.39 -59.42 706.14 -19.08 706.14S21.88 681.04 61.83 681.04S102.97 720.39 142.75 720.39S183.66 680.12 223.66 680.12S264.34 699.43 304.58 699.43S346.4 676.89 385.5 676.89S427.93 700.16 466.41 700.16S508.01 693.31 547.33 693.31S589.6 708.29 628.24 708.29S669.91 680.04 709.16 680.04S750.72 711.51 790.08 711.51S831.8 687.37 870.99 687.37S912.85 708.32 951.91 708.32S992.38 714.26 1032.82 714.26S1074.08 692.88 1113.74 692.88S1155.38 676.46 1194.66 676.46S1235.35 699.72 1275.57 699.72S1316.09 718.37 1356.49 718.37S1399.12 717.83 1437.4 717.83S1479.66 689.45 1518.32 689.45S1559.08 712.11 1599.24 712.11S1641.41 678.81 1680.15 678.81S1722.35 718.87 1761.07 718.87S1802.65 684.64 1841.98 684.64S1884.6 716.23 1922.9 716.23S1965.21 690.55 2003.82 690.55S2046.4 708.62 2084.73 708.62L2020 919 L-100 919 Z">
      </animate>
      <animateTransform attributeName="transform" type="translate" dur="10s" begin="-6s" repeatCount="indefinite"
        values="0;10;0" calcMode="spline" keySplines="0.3 0 0.7 1;0.3 0 0.7 1"></animateTransform>
    </path>
    <path
      d="M-100 697.64C-58.06 700.76 -58.01 730.07 -16.54 730.07S26.04 715.17 66.93 715.17S110.38 737.56 150.39 737.56S193.64 706.31 233.86 706.31S277.88 741.74 317.32 741.74S361.2 696.58 400.79 696.58S444.23 746.83 484.25 746.83S527.23 742.42 567.72 742.42S611.63 740.97 651.18 740.97S693.6 695.59 734.65 695.59S777.28 739.72 818.11 739.72S860.62 715.66 901.57 715.66S944.59 704.27 985.04 704.27S1028.91 694.27 1068.5 694.27S1111.73 742.47 1151.97 742.47S1194.51 705.91 1235.43 705.91S1277.95 733.38 1318.9 733.38S1362.08 708.5 1402.36 708.5S1445.12 734.24 1485.83 734.24S1527.9 716 1569.29 716S1612.53 742 1652.76 742S1695.67 709.5 1736.22 709.5S1778.59 745.46 1819.69 745.46S1863.46 712 1903.15 712S1946.54 732.38 1986.61 732.38S2029.18 709.34 2070.08 709.34L2020 919 L-100 919 Z"
      fill="#adbcbc" stroke-width="0">
      <animate attributeName="d" dur="7.5s" repeatCount="indefinite"
        values="M-100 697.64C-58.06 700.76 -58.01 730.07 -16.54 730.07S26.04 715.17 66.93 715.17S110.38 737.56 150.39 737.56S193.64 706.31 233.86 706.31S277.88 741.74 317.32 741.74S361.2 696.58 400.79 696.58S444.23 746.83 484.25 746.83S527.23 742.42 567.72 742.42S611.63 740.97 651.18 740.97S693.6 695.59 734.65 695.59S777.28 739.72 818.11 739.72S860.62 715.66 901.57 715.66S944.59 704.27 985.04 704.27S1028.91 694.27 1068.5 694.27S1111.73 742.47 1151.97 742.47S1194.51 705.91 1235.43 705.91S1277.95 733.38 1318.9 733.38S1362.08 708.5 1402.36 708.5S1445.12 734.24 1485.83 734.24S1527.9 716 1569.29 716S1612.53 742 1652.76 742S1695.67 709.5 1736.22 709.5S1778.59 745.46 1819.69 745.46S1863.46 712 1903.15 712S1946.54 732.38 1986.61 732.38S2029.18 709.34 2070.08 709.34L2020 919 L-100 919 Z;M-100 715.27C-57.86 695.12 -56.9 737.21 -16.54 737.21S26.78 713.13 66.93 713.13S109.07 737.51 150.39 737.51S192.5 705.18 233.86 705.18S275.9 737.67 317.32 737.67S361.32 716.19 400.79 716.19S444.77 732.34 484.25 732.34S526.81 702.79 567.72 702.79S610.68 729.85 651.18 729.85S694.43 705.65 734.65 705.65S778.34 738.91 818.11 738.91S861.78 728.62 901.57 728.62S943.78 733.33 985.04 733.33S1028.01 698.74 1068.5 698.74S1110.48 739.97 1151.97 739.97S1194.53 705.38 1235.43 705.38S1278.63 715.94 1318.9 715.94S1362.44 705.1 1402.36 705.1S1445.21 741.34 1485.83 741.34S1528.44 708.43 1569.29 708.43S1612.64 746.21 1652.76 746.21S1695.71 712.81 1736.22 712.81S1779.14 733.51 1819.69 733.51S1863.48 710.42 1903.15 710.42S1946.35 726.86 1986.61 726.86S2028.7 699.37 2070.08 699.37L2020 919 L-100 919 Z;M-100 697.64C-58.06 700.76 -58.01 730.07 -16.54 730.07S26.04 715.17 66.93 715.17S110.38 737.56 150.39 737.56S193.64 706.31 233.86 706.31S277.88 741.74 317.32 741.74S361.2 696.58 400.79 696.58S444.23 746.83 484.25 746.83S527.23 742.42 567.72 742.42S611.63 740.97 651.18 740.97S693.6 695.59 734.65 695.59S777.28 739.72 818.11 739.72S860.62 715.66 901.57 715.66S944.59 704.27 985.04 704.27S1028.91 694.27 1068.5 694.27S1111.73 742.47 1151.97 742.47S1194.51 705.91 1235.43 705.91S1277.95 733.38 1318.9 733.38S1362.08 708.5 1402.36 708.5S1445.12 734.24 1485.83 734.24S1527.9 716 1569.29 716S1612.53 742 1652.76 742S1695.67 709.5 1736.22 709.5S1778.59 745.46 1819.69 745.46S1863.46 712 1903.15 712S1946.54 732.38 1986.61 732.38S2029.18 709.34 2070.08 709.34L2020 919 L-100 919 Z">
      </animate>
      <animateTransform attributeName="transform" type="translate" dur="7.5s" begin="-5.25s" repeatCount="indefinite"
        values="0;10;0" calcMode="spline" keySplines="0.3 0 0.7 1;0.3 0 0.7 1"></animateTransform>
    </path>
    <path
      d="M-100 721.29C-54.99 727.92 -55.82 771.18 -13.82 771.18S30.95 726.65 72.36 726.65S115.75 762.62 158.54 762.62S202.79 720.42 244.72 720.42S289.57 761.98 330.89 761.98S376.03 727.54 417.07 727.54S461.69 762.88 503.25 762.88S546.86 775.22 589.43 775.22S633.92 762.93 675.61 762.93S719.65 719.73 761.79 719.73S807.03 772.73 847.97 772.73S891.87 719.38 934.15 719.38S978.06 762.24 1020.33 762.24S1063.94 721.05 1106.5 721.05S1151.43 760.85 1192.68 760.85S1236.41 720.08 1278.86 720.08S1323.44 763.43 1365.04 763.43S1410.22 728.72 1451.22 728.72S1495.13 738.08 1537.4 738.08S1581.88 736.21 1623.58 736.21S1666.99 766.18 1709.76 766.18S1752.94 764.66 1795.93 764.66S1839.12 764.2 1882.11 764.2S1926.25 761.17 1968.29 761.17S2013.39 773.35 2054.47 773.35L2020 919 L-100 919 Z"
      fill="#c6d2d2" stroke-width="0">
      <animate attributeName="d" dur="5s" repeatCount="indefinite"
        values="M-100 721.29C-54.99 727.92 -55.82 771.18 -13.82 771.18S30.95 726.65 72.36 726.65S115.75 762.62 158.54 762.62S202.79 720.42 244.72 720.42S289.57 761.98 330.89 761.98S376.03 727.54 417.07 727.54S461.69 762.88 503.25 762.88S546.86 775.22 589.43 775.22S633.92 762.93 675.61 762.93S719.65 719.73 761.79 719.73S807.03 772.73 847.97 772.73S891.87 719.38 934.15 719.38S978.06 762.24 1020.33 762.24S1063.94 721.05 1106.5 721.05S1151.43 760.85 1192.68 760.85S1236.41 720.08 1278.86 720.08S1323.44 763.43 1365.04 763.43S1410.22 728.72 1451.22 728.72S1495.13 738.08 1537.4 738.08S1581.88 736.21 1623.58 736.21S1666.99 766.18 1709.76 766.18S1752.94 764.66 1795.93 764.66S1839.12 764.2 1882.11 764.2S1926.25 761.17 1968.29 761.17S2013.39 773.35 2054.47 773.35L2020 919 L-100 919 Z;M-100 771.2C-55.46 767.82 -55.94 757.11 -13.82 757.11S29.39 770.51 72.36 770.51S116.73 754.52 158.54 754.52S203 755.64 244.72 755.64S288.66 736.62 330.89 736.62S375.99 721.37 417.07 721.37S460.61 776.4 503.25 776.4S547 729.69 589.43 729.69S634.38 755.52 675.61 755.52S718.71 725.15 761.79 725.15S806.29 764.31 847.97 764.31S893 735.81 934.15 735.81S977.32 759.5 1020.33 759.5S1064.55 719.39 1106.5 719.39S1151.77 766.2 1192.68 766.2S1237.57 728.46 1278.86 728.46S1322.84 757.72 1365.04 757.72S1409.61 734.7 1451.22 734.7S1496.03 762.9 1537.4 762.9S1580.63 733.94 1623.58 733.94S1667.75 719.46 1709.76 719.46S1753.81 776.24 1795.93 776.24S1841.01 776.55 1882.11 776.55S1927.41 733.05 1968.29 733.05S2013.64 767.12 2054.47 767.12L2020 919 L-100 919 Z;M-100 721.29C-54.99 727.92 -55.82 771.18 -13.82 771.18S30.95 726.65 72.36 726.65S115.75 762.62 158.54 762.62S202.79 720.42 244.72 720.42S289.57 761.98 330.89 761.98S376.03 727.54 417.07 727.54S461.69 762.88 503.25 762.88S546.86 775.22 589.43 775.22S633.92 762.93 675.61 762.93S719.65 719.73 761.79 719.73S807.03 772.73 847.97 772.73S891.87 719.38 934.15 719.38S978.06 762.24 1020.33 762.24S1063.94 721.05 1106.5 721.05S1151.43 760.85 1192.68 760.85S1236.41 720.08 1278.86 720.08S1323.44 763.43 1365.04 763.43S1410.22 728.72 1451.22 728.72S1495.13 738.08 1537.4 738.08S1581.88 736.21 1623.58 736.21S1666.99 766.18 1709.76 766.18S1752.94 764.66 1795.93 764.66S1839.12 764.2 1882.11 764.2S1926.25 761.17 1968.29 761.17S2013.39 773.35 2054.47 773.35L2020 919 L-100 919 Z">
      </animate>
      <animateTransform attributeName="transform" type="translate" dur="5s" begin="-4s" repeatCount="indefinite"
        values="0;10;0" calcMode="spline" keySplines="0.3 0 0.7 1;0.3 0 0.7 1"></animateTransform>
    </path>
    <path
      d="M-100 742.62C-53.28 745.27 -54.69 782.52 -10.92 782.52S35.18 755.68 78.15 755.68S123.26 800.61 167.23 800.61S213.23 749.98 256.3 749.98S301.78 783.25 345.38 783.25S390.63 748.98 434.45 748.98S479.6 788.71 523.53 788.71S569.77 749.52 612.61 749.52S657.49 794.43 701.68 794.43S746.96 798.28 790.76 798.28S835.38 796.32 879.83 796.32S925.42 743.79 968.91 743.79S1014.8 802.56 1057.98 802.56S1102.88 752.25 1147.06 752.25S1191.76 794.74 1236.13 794.74S1281.41 753.88 1325.21 753.88S1369.92 790.69 1414.29 790.69S1459.68 748.78 1503.36 748.78S1549.53 745.9 1592.44 745.9S1637.66 748.3 1681.51 748.3S1728.08 762.43 1770.59 762.43S1816.12 741.42 1859.66 741.42S1904.24 792.14 1948.74 792.14S1993.97 748.47 2037.82 748.47L2020 919 L-100 919 Z"
      fill="#dfe8e8" stroke-width="0">
      <animate attributeName="d" dur="2.5s" repeatCount="indefinite"
        values="M-100 742.62C-53.28 745.27 -54.69 782.52 -10.92 782.52S35.18 755.68 78.15 755.68S123.26 800.61 167.23 800.61S213.23 749.98 256.3 749.98S301.78 783.25 345.38 783.25S390.63 748.98 434.45 748.98S479.6 788.71 523.53 788.71S569.77 749.52 612.61 749.52S657.49 794.43 701.68 794.43S746.96 798.28 790.76 798.28S835.38 796.32 879.83 796.32S925.42 743.79 968.91 743.79S1014.8 802.56 1057.98 802.56S1102.88 752.25 1147.06 752.25S1191.76 794.74 1236.13 794.74S1281.41 753.88 1325.21 753.88S1369.92 790.69 1414.29 790.69S1459.68 748.78 1503.36 748.78S1549.53 745.9 1592.44 745.9S1637.66 748.3 1681.51 748.3S1728.08 762.43 1770.59 762.43S1816.12 741.42 1859.66 741.42S1904.24 792.14 1948.74 792.14S1993.97 748.47 2037.82 748.47L2020 919 L-100 919 Z;M-100 755.76C-53.88 761.66 -54.24 796.09 -10.92 796.09S34.45 755.32 78.15 755.32S123.58 797.2 167.23 797.2S212.76 759.05 256.3 759.05S302.7 799.23 345.38 799.23S391.19 750.63 434.45 750.63S480.61 791.28 523.53 791.28S570.27 753.53 612.61 753.53S658.31 785.39 701.68 785.39S746.85 747.25 790.76 747.25S835.8 797.67 879.83 797.67S924.54 753.33 968.91 753.33S1015.44 782.57 1057.98 782.57S1103.91 781.46 1147.06 781.46S1191.74 799.05 1236.13 799.05S1282.95 749.81 1325.21 749.81S1371.45 750.94 1414.29 750.94S1459.81 745.05 1503.36 745.05S1548.28 802.19 1592.44 802.19S1638.59 741.29 1681.51 741.29S1727.04 781.81 1770.59 781.81S1815.4 740.12 1859.66 740.12S1905.1 803.7 1948.74 803.7S1995.45 741.8 2037.82 741.8L2020 919 L-100 919 Z;M-100 742.62C-53.28 745.27 -54.69 782.52 -10.92 782.52S35.18 755.68 78.15 755.68S123.26 800.61 167.23 800.61S213.23 749.98 256.3 749.98S301.78 783.25 345.38 783.25S390.63 748.98 434.45 748.98S479.6 788.71 523.53 788.71S569.77 749.52 612.61 749.52S657.49 794.43 701.68 794.43S746.96 798.28 790.76 798.28S835.38 796.32 879.83 796.32S925.42 743.79 968.91 743.79S1014.8 802.56 1057.98 802.56S1102.88 752.25 1147.06 752.25S1191.76 794.74 1236.13 794.74S1281.41 753.88 1325.21 753.88S1369.92 790.69 1414.29 790.69S1459.68 748.78 1503.36 748.78S1549.53 745.9 1592.44 745.9S1637.66 748.3 1681.51 748.3S1728.08 762.43 1770.59 762.43S1816.12 741.42 1859.66 741.42S1904.24 792.14 1948.74 792.14S1993.97 748.47 2037.82 748.47L2020 919 L-100 919 Z">
      </animate>
      <animateTransform attributeName="transform" type="translate" dur="2.5s" begin="-2.25s" repeatCount="indefinite"
        values="0;10;0" calcMode="spline" keySplines="0.3 0 0.7 1;0.3 0 0.7 1"></animateTransform>
    </path>
  </g>
</svg>